<?xml version="1.0" standalone="no"?><!DOCTYPE svg PUBLIC "-//W3C//DTD SVG 1.1//EN" "http://www.w3.org/Graphics/SVG/1.1/DTD/svg11.dtd"><svg t="1582296488692" class="icon" viewBox="0 0 1024 1024" version="1.1" xmlns="http://www.w3.org/2000/svg" p-id="1405" xmlns:xlink="http://www.w3.org/1999/xlink" width="200" height="200"><defs><style type="text/css"></style></defs><path d="M347.136 624.64c-19.968 0-37.888-11.264-46.592-28.672L241.152 475.136c0-0.512-0.512-0.512-0.512-1.024h-0.512l-134.144-19.456c-19.456-2.56-35.328-16.384-41.984-34.816-6.144-18.944-1.536-39.424 12.8-53.248L173.568 271.36s0.512-0.512 0.512-1.024l-23.04-133.632c-3.072-19.968 4.608-39.424 20.992-51.2 15.872-11.776 36.864-13.312 54.272-4.096l119.296 62.976c0.512 0 1.536 0.512 3.072 0L467.456 81.92c17.408-9.216 38.4-7.68 54.784 3.584 16.384 11.776 24.064 31.232 20.992 51.2l-23.04 133.12s0 0.512 0.512 1.024l96.768 94.208c14.336 13.824 19.456 34.304 13.312 53.248-6.144 18.944-22.528 32.768-42.496 35.328l-134.144 19.456h-0.512s-0.512 0.512-0.512 1.024l-59.904 120.832c-8.704 18.432-26.624 29.696-46.08 29.696zM247.296 423.424c16.384 2.048 31.232 12.288 38.912 27.648l0.512 0.512 59.392 120.832s0 0.512 1.024 0.512 1.024 0 1.024-0.512l59.904-121.344s0-0.512 0.512-0.512c8.192-15.36 22.528-25.6 38.912-27.648l133.632-19.456c0.512 0 1.024 0 1.024-0.512v-0.512l-0.512-0.512-96.768-93.696c-12.288-12.288-17.92-29.696-14.848-46.592l23.04-133.12v-1.024c0-0.512-0.512-0.512-0.512-0.512L371.712 190.464c-0.512 0.512-1.024 0.512-1.536 1.024-15.36 6.656-32.768 6.144-47.104-1.024H322.56L202.752 126.976c-0.512 0-1.024 0-1.024 0.512v1.024l23.04 133.632c3.072 16.384-2.56 33.792-14.848 46.08L112.64 402.944v0.512c0 0.512 0.512 1.024 0.512 1.024l134.144 18.944zM800.256 653.312c-14.848 0-28.672-8.192-35.84-22.016 0 0 0-0.512-0.512-0.512l-29.696-59.392-66.048-9.216c-14.848-2.048-27.648-12.288-32.256-27.136-4.608-14.336-0.512-30.208 10.24-40.96l47.104-46.592-11.264-65.024c-2.56-15.36 3.584-30.208 15.872-38.912 12.288-8.704 28.672-9.728 41.984-2.56l58.88 31.232 59.392-31.232c12.8-7.168 29.184-6.144 41.472 3.072 12.8 9.216 18.944 24.064 15.872 39.424l-11.264 65.024 47.616 46.592c10.752 10.752 14.848 26.624 9.728 40.96-4.608 14.336-16.896 24.576-31.744 26.624l-65.536 9.216-29.696 59.392c-6.144 13.312-19.968 22.016-34.816 22.528 1.024-0.512 1.024-0.512 0.512-0.512z m-10.24-45.056z m-41.984-87.04c12.8 1.536 24.576 9.728 30.208 21.504l22.016 44.544 22.016-44.544c6.144-11.776 17.408-19.968 30.208-21.504l48.128-6.656-34.816-33.792c-9.728-9.216-14.336-22.528-11.776-35.84l8.192-47.616L819.2 419.84s-0.512 0-0.512 0.512c-10.752 5.12-23.04 5.632-35.328 1.024-1.024-0.512-1.536-0.512-2.56-1.024l-43.52-23.04 8.192 48.128v1.024c1.536 13.312-3.072 25.6-11.776 34.304l-34.816 33.792 49.152 6.656z m111.104 51.2z m65.024-60.928z m-248.32-0.512c0.512 0 0.512 0 0 0z m24.064-68.608z m17.408-56.32z m166.4 0z m-16.896-12.288c0 0.512 0 0.512 0 0z m-133.12 0zM348.16 972.288c-14.848 0-28.672-8.192-35.84-22.016v-0.512l-29.696-59.392-65.536-9.728c-14.848-2.048-27.648-12.288-32.256-27.136-4.608-14.336-0.512-30.208 10.24-40.96l47.104-46.592-11.264-65.024c-2.56-15.36 3.584-30.208 15.872-38.912 12.288-8.704 28.672-9.728 41.984-2.56L348.16 691.2l59.392-31.232c12.8-7.168 29.184-6.144 41.472 3.072 12.8 9.216 18.944 24.064 15.872 39.424l-11.264 65.024 47.616 46.592c10.752 10.752 14.848 26.624 9.728 40.96-4.608 14.336-16.896 24.576-31.744 26.624L413.696 890.88 384 949.76c-6.144 13.312-19.968 22.016-34.816 22.528H348.16z m-10.24-45.056z m-41.984-87.04c12.8 1.536 24.576 9.728 30.208 21.504L348.16 906.24l22.016-44.544c6.144-11.776 17.408-19.968 30.208-21.504l48.128-6.656-34.816-33.792c-9.728-9.216-14.336-22.528-11.776-35.84l8.192-47.616-42.496 22.528c-7.168 4.096-20.48 8.704-37.376 1.024-0.512 0-1.024-0.512-1.536-0.512l-43.52-23.04 8.192 48.128v1.024c1.536 13.312-3.072 25.6-11.776 34.304l-34.816 33.792 49.152 6.656z m111.104 51.2z m-117.76 0z m182.784-61.44c0 0.512 0 0.512 0 0z m-248.32 0c0.512 0 0.512 0 0 0z m24.064-68.608z m17.408-56.32z m166.4 0z m-16.896-12.288c0 0.512 0 0.512 0 0z m-133.12 0z" p-id="1406"></path><path d="M737.792 865.28c-7.68 0-15.36-3.584-20.48-9.728l-230.912-296.96c-8.704-11.264-6.656-27.136 4.608-35.84 11.264-8.704 27.136-6.656 35.84 4.608l230.912 296.96c8.704 11.264 6.656 27.136-4.608 35.84-4.096 3.584-9.728 5.12-15.36 5.12z" p-id="1407"></path></svg>