<?xml version="1.0" standalone="no"?><!DOCTYPE svg PUBLIC "-//W3C//DTD SVG 1.1//EN" "http://www.w3.org/Graphics/SVG/1.1/DTD/svg11.dtd"><svg t="1582178953099" class="icon" viewBox="0 0 1024 1024" version="1.1" xmlns="http://www.w3.org/2000/svg" p-id="5244" xmlns:xlink="http://www.w3.org/1999/xlink" width="200" height="200"><defs><style type="text/css"></style></defs><path d="M832.9 128H191.1C121.2 128 64 185.2 64 255.1v385.7c0 70 57.2 127.2 127.1 127.2h0.9v128.3L405.5 768h427.4c69.9 0 127.1-57.2 127.1-127.1V255.1c0-69.9-57.2-127.1-127.1-127.1zM256 512.2c-35.3 0-64-28.7-64-64s28.7-64 64-64 64 28.7 64 64-28.6 64-64 64z m256 0c-35.3 0-64-28.7-64-64s28.7-64 64-64 64 28.7 64 64-28.7 64-64 64z m256.1 0c-35.3 0-64-28.7-64-64s28.7-64 64-64 64 28.7 64 64-28.6 64-64 64z" fill="" p-id="5245"></path></svg>