<?xml version="1.0" standalone="no"?><!DOCTYPE svg PUBLIC "-//W3C//DTD SVG 1.1//EN" "http://www.w3.org/Graphics/SVG/1.1/DTD/svg11.dtd"><svg t="1582117401768" class="icon" viewBox="0 0 1187 1024" version="1.1" xmlns="http://www.w3.org/2000/svg" p-id="1553" xmlns:xlink="http://www.w3.org/1999/xlink" width="231.8359375" height="200"><defs><style type="text/css"></style></defs><path d="M366.274162 657.725838m-366.274162 0a366.274162 366.274162 0 1 0 732.548324 0 366.274162 366.274162 0 1 0-732.548324 0Z" fill="#FFD9D9" p-id="1554"></path><path d="M1027.922273 314.997872m-104.649761 0a104.649761 104.649761 0 1 0 209.299522 0 104.649761 104.649761 0 1 0-209.299522 0Z" fill="#FFD9D9" p-id="1555"></path><path d="M960.161553 721.562192H313.949282a62.004983 62.004983 0 0 1-60.696861-62.004983V272.614719A61.743359 61.743359 0 0 1 313.949282 210.871361h646.212271a62.004983 62.004983 0 0 1 62.004983 61.743358V659.557209a62.004983 62.004983 0 0 1-62.004983 62.004983zM313.949282 237.033801a35.580919 35.580919 0 0 0-35.580919 35.580918V659.557209A35.580919 35.580919 0 0 0 313.949282 695.399752h646.212271a35.842543 35.842543 0 0 0 35.842543-35.842543V272.614719a35.580919 35.580919 0 0 0-35.842543-35.580918zM148.864284 631.825022H92.353414a26.16244 26.16244 0 0 1-26.16244-26.16244V326.509346a26.16244 26.16244 0 0 1 26.16244-26.16244h56.51087a26.16244 26.16244 0 0 1 26.162441 26.16244v279.414861a26.16244 26.16244 0 0 1-26.162441 25.900815z m0-26.16244z m0-279.153236H92.353414v279.414861h56.51087zM1161.089093 631.825022h-56.772495a26.16244 26.16244 0 0 1-26.16244-26.16244V326.509346a26.16244 26.16244 0 0 1 26.16244-26.16244h56.772495a26.16244 26.16244 0 0 1 26.16244 26.16244v279.414861a26.16244 26.16244 0 0 1-26.16244 25.900815z m0-26.16244z m0-279.153236h-56.772495v279.414861h56.249247z" fill="#2D2F33" p-id="1556"></path><path d="M426.447774 448.426317a73.254832 73.254832 0 1 1 73.254833-73.254832 73.254832 73.254832 0 0 1-73.254833 73.254832z m0-120.347225a47.092392 47.092392 0 1 0 47.092392 47.092393 47.354017 47.354017 0 0 0-47.092392-47.092393zM813.128639 721.562192H328.861873a12.819596 12.819596 0 0 1-10.726601-5.494112 12.557971 12.557971 0 0 1-1.569746-12.034723c3.401117-9.418478 85.551179-225.520234 228.398102-230.752722a188.107945 188.107945 0 0 1 104.649761 34.272797 13.08122 13.08122 0 0 1 3.924366 18.052083 13.342844 13.342844 0 0 1-18.313708 3.924366 160.375758 160.375758 0 0 0-90.522043-30.086806c-103.341639 3.924366-175.026725 145.463167-197.264799 195.956677h465.691434a13.08122 13.08122 0 0 1 0 26.16244z" fill="#2D2F33" p-id="1557"></path><path d="M961.731299 721.562192h-418.599042a13.342844 13.342844 0 0 1-13.08122-11.511474 13.604469 13.604469 0 0 1 2.35462-8.895229c0-1.569746 1.831371-4.709239 3.662741-9.156854 106.742756-254.298918 212.962263-309.240042 283.339227-310.548165 140.753928-3.139493 200.92754 124.271591 200.92754 125.579713a17.005586 17.005586 0 0 1 0 5.494112v148.60266a61.481734 61.481734 0 0 1-58.603866 60.435237z m-397.407465-26.16244h397.407465c31.394928 0 34.272797-33.749548 34.272797-35.05767v-144.939918a192.817184 192.817184 0 0 0-175.026724-108.835751c-88.429048 1.569746-178.427842 103.864887-256.653538 287.786841zM413.366554 132.38404a51.016758 51.016758 0 1 1 51.016758-51.016758 50.755134 50.755134 0 0 1-51.016758 51.016758z m0-75.609452a24.854318 24.854318 0 0 0 0 49.447012 24.854318 24.854318 0 1 0 0-49.447012zM875.918496 132.38404a51.016758 51.016758 0 1 1 50.755134-51.016758 50.755134 50.755134 0 0 1-50.755134 51.016758z m0-75.609452a24.854318 24.854318 0 1 0 24.592694 24.592694 24.592694 24.592694 0 0 0-24.592694-24.592694zM643.857652 162.732471a81.365189 81.365189 0 1 1 81.103564-81.365189 81.365189 81.365189 0 0 1-81.103564 81.365189z m0-136.306313a55.202749 55.202749 0 1 0 54.941124 54.941124 55.202749 55.202749 0 0 0-54.941124-54.941124z" fill="#2D2F33" p-id="1558"></path></svg>